<?xml version="1.0" encoding="UTF-8"?>
<svg id="a" data-name="Layer 1" xmlns="http://www.w3.org/2000/svg" width="142.59mm" height="282.22mm" viewBox="0 0 404.18 800">
  <path d="m12.9,426.1h87.7v361c0,7.1,5.8,12.9,12.9,12.9h148.7c7.1,0,12.9-5.8,12.9-12.9v-359.3h100.8c6.6,0,12.1-4.9,12.8-11.4l15.4-133c.4-3.7-.7-7.3-3.2-10.1-2.4-2.7-6-4.3-9.6-4.3h-116.2v-83.3c0-25.1,13.5-37.9,40.2-37.9h75.9c7.1,0,12.9-5.8,12.9-12.9V13c0-7.1-5.8-12.9-12.9-12.9h-104.6c-.7,0-2.4-.1-4.8-.1-18.2,0-81.3,3.6-131.1,49.4-55.2,50.8-47.6,111.7-45.7,122.2v97.4H12.9c-7.1,0-12.9,5.8-12.9,12.9v131.2c0,7.2,5.8,13,12.9,13Z" style="fill: #fff;"/>
</svg>