<?xml version="1.0" encoding="UTF-8"?>
<svg id="uuid-fc6cdc50-c65d-40e7-ac76-60ca06949e4b" data-name="Warstwa 2" xmlns="http://www.w3.org/2000/svg" width="1001" height="1001" xmlns:xlink="http://www.w3.org/1999/xlink" viewBox="0 0 1001 1001">
  <defs>
    <filter id="uuid-47ef2ccd-440b-485e-9f56-259a90aad574" x="363.41" y="346.6" width="270.64" height="423" color-interpolation-filters="sRGB" filterUnits="userSpaceOnUse">
      <feFlood flood-color="#fff" result="bg"/>
      <feBlend in="SourceGraphic" in2="bg"/>
    </filter>
    <mask id="uuid-fd862780-6b2b-4171-a4b9-b74a2493bc50" data-name="mask" x="363.41" y="346.6" width="270.64" height="423" maskUnits="userSpaceOnUse">
      <g style="filter: url(#uuid-47ef2ccd-440b-485e-9f56-259a90aad574);">
        <rect x="464.34" y="477.13" width="69.98" height="139.29" style="fill: #1d1d1b;"/>
      </g>
    </mask>
  </defs>
  <circle id="uuid-719063af-f505-4a70-bbb8-e53ffc6ff863" data-name="Circle" cx="500.5" cy="500.5" r="370.83" style="fill: #010101; stroke: #fff; stroke-miterlimit: 10; stroke-width: 19px;"/>
  <polygon id="uuid-120e49c7-abf5-4679-a834-584ba0b6520f" data-name="T" points="650.21 262.2 650.21 306.6 526.6 306.6 526.6 790.33 472.3 790.33 472.3 306.6 350.8 306.6 350.8 262.2 650.21 262.2" style="fill: #fff;"/>
  <g style="mask: url(#uuid-fd862780-6b2b-4171-a4b9-b74a2493bc50);">
    <path id="uuid-0ccac6d8-ef96-432a-a0c2-a0e984d08085" data-name="S" d="m380.12,697c23.4,14.4,57.6,26.4,93.6,26.4,53.4,0,84.6-28.2,84.6-69,0-37.8-21.6-59.4-76.2-80.4-66-23.4-106.8-57.6-106.8-114.6,0-63,52.2-109.8,130.8-109.8,41.4,0,101.38,22.9,124.4,40.8l-14.4,42.6c-36.62-28-75.2-40.2-111.8-40.2-55.2,0-76.2,33-76.2,60.6,0,37.8,24.6,56.4,80.4,78,68.4,26.4,103.2,59.4,103.2,118.8,0,62.4-46.2,116.4-141.6,116.4-39,0-81.6-11.4-103.2-25.8l13.2-43.8Z" style="fill: #fff; stroke: #1d1d1b; stroke-miterlimit: 10; stroke-width: 6px;"/>
  </g>
  <g id="uuid-5dc07387-eed3-4ab1-8eb8-7838cea31cff" data-name="Lines">
    <circle cx="526.6" cy="306.6" r="22.02" style="fill: none; stroke: #fff; stroke-miterlimit: 10;"/>
    <line x1="351.41" y1="802.24" x2="530.8" y2="206.98" style="fill: none; stroke: #fff; stroke-miterlimit: 10;"/>
    <line x1="370.92" y1="825.5" x2="370.92" y2="200.83" style="fill: none; stroke: #fff; stroke-miterlimit: 10;"/>
    <line x1="381.92" y1="813.5" x2="381.92" y2="188.83" style="fill: none; stroke: #fff; stroke-miterlimit: 10;"/>
    <path d="m393.23,663.46c14.57,4.76,25.11,18.46,25.11,34.62,0,9.13-3.36,17.48-8.92,23.87" style="fill: none; stroke: #fff; stroke-miterlimit: 10;"/>
    <line x1="491.53" y1="795.78" x2="689.42" y2="206.4" style="fill: none; stroke: #fff; stroke-miterlimit: 10;"/>
    <line x1="211.01" y1="500.5" x2="789.99" y2="500.5" style="fill: none; stroke: #fff; stroke-miterlimit: 10;"/>
    <path d="m371.16,648.38c3.47-.74,7.07-1.12,10.76-1.12,28.49,0,51.58,23.09,51.58,51.58,0,10.43-3.1,20.14-8.43,28.26" style="fill: none; stroke: #fff; stroke-miterlimit: 10;"/>
    <line id="uuid-9349ebdb-17e2-44a5-ad93-28a2f8a36593" data-name="Lines" x1="812.03" y1="592.63" x2="431.7" y2="212.3" style="fill: none; stroke: #fff; stroke-miterlimit: 10;"/>
    <line x1="312" y1="306.6" x2="684" y2="306.6" style="fill: none; stroke: #fff; stroke-miterlimit: 10;"/>
    <line x1="607.92" y1="839.5" x2="607.92" y2="228.76" style="fill: none; stroke: #fff; stroke-miterlimit: 10;"/>
  </g>
</svg>