<?xml version="1.0" encoding="UTF-8"?>
<svg id="Regular" xmlns="http://www.w3.org/2000/svg" width="1000" height="1000" viewBox="0 0 1000 1000">
  <defs>
    <style>
      .cls-1, .cls-2 {
        fill: #fff;
      }

      .cls-3 {
        fill: none;
      }

      .cls-3, .cls-2 {
        stroke: #fff;
        stroke-miterlimit: 10;
        stroke-width: .75px;
      }
    </style>
  </defs>
  <g>
    <line class="cls-2" x1="102.79" y1="402.5" x2="730.12" y2="402.5"/>
    <line class="cls-2" x1="638.12" y1="911.5" x2="638.13" y2="207.5"/>
    <line class="cls-2" x1="949.13" y1="689.23" x2="245.13" y2="689.23"/>
    <line class="cls-2" x1="865.79" y1="345.8" x2="381.12" y2="832.47"/>
    <line class="cls-2" x1="726.12" y1="409.13" x2="22.12" y2="409.13"/>
    <line class="cls-2" x1="938.79" y1="524.39" x2="54.79" y2="524.39"/>
    <line class="cls-2" x1="972.79" y1="607.8" x2="49.46" y2="607.8"/>
    <line class="cls-2" x1="888.79" y1="574.47" x2="63.13" y2="574.47"/>
    <line class="cls-2" x1="977.88" y1="687.23" x2="54.79" y2="687.23"/>
    <circle class="cls-3" cx="638.13" cy="574.47" r="33.33"/>
    <path class="cls-3" d="m626.56,586.03c-2.96-2.96-4.79-7.05-4.79-11.56,0-9.03,7.32-16.35,16.35-16.35"/>
    <line class="cls-2" x1="188.62" y1="792.5" x2="188.62" y2="88.5"/>
    <line class="cls-2" x1="370.12" y1="860.5" x2="370.12" y2="156.5"/>
    <line class="cls-2" x1="278.12" y1="860.5" x2="278.12" y2="156.5"/>
    <line class="cls-2" x1="198.12" y1="860.5" x2="198.13" y2="156.5"/>
    <circle class="cls-3" cx="455.24" cy="558.11" r="218.22"/>
  </g>
  <g id="Technika">
    <g>
      <path class="cls-1" d="m73.56,422.01h-34.98v-12.63h85.15v12.63h-35.15v102.38h-15.02v-102.38Z"/>
      <path class="cls-1" d="m129.7,485.83c.34,20.31,13.31,28.67,28.33,28.67,10.75,0,17.23-1.88,22.87-4.27l2.56,10.75c-5.29,2.39-14.33,5.12-27.47,5.12-25.42,0-40.61-16.72-40.61-41.64s14.67-44.54,38.73-44.54c26.96,0,34.13,23.72,34.13,38.91,0,3.07-.34,5.46-.51,7h-58.02Zm44.02-10.75c.17-9.56-3.92-24.4-20.82-24.4-15.19,0-21.84,13.99-23.04,24.4h43.85Z"/>
      <path class="cls-1" d="m263.14,521.32c-3.92,2.05-12.63,4.78-23.72,4.78-24.91,0-41.12-16.89-41.12-42.15s17.41-43.85,44.37-43.85c8.87,0,16.72,2.22,20.82,4.27l-3.41,11.6c-3.58-2.05-9.21-3.92-17.4-3.92-18.94,0-29.18,13.99-29.18,31.23,0,19.11,12.29,30.89,28.67,30.89,8.53,0,14.16-2.22,18.43-4.1l2.56,11.26Z"/>
      <path class="cls-1" d="m278.15,403.24h15.02v51.53h.34c2.39-4.27,6.14-8.02,10.75-10.58,4.44-2.56,9.73-4.27,15.36-4.27,11.09,0,28.84,6.83,28.84,35.32v49.14h-15.02v-47.44c0-13.31-4.95-24.57-19.11-24.57-9.73,0-17.41,6.83-20.14,15.02-.85,2.05-1.02,4.27-1.02,7.17v49.83h-15.02v-121.15Z"/>
      <path class="cls-1" d="m370.29,464.15c0-8.53-.17-15.53-.68-22.35h13.31l.85,13.65h.34c4.1-7.85,13.65-15.53,27.3-15.53,11.43,0,29.18,6.83,29.18,35.15v49.31h-15.02v-47.61c0-13.31-4.95-24.4-19.11-24.4-9.9,0-17.58,7-20.14,15.36-.68,1.88-1.02,4.44-1.02,7v49.66h-15.02v-60.24Z"/>
      <path class="cls-1" d="m479.16,418.59c.17,5.12-3.58,9.21-9.56,9.21-5.29,0-9.04-4.1-9.04-9.21s3.92-9.38,9.39-9.38,9.21,4.1,9.21,9.38Zm-16.72,105.8v-82.59h15.02v82.59h-15.02Z"/>
      <path class="cls-1" d="m514.65,479.68h.34c2.05-2.9,4.95-6.48,7.34-9.39l24.23-28.5h18.09l-31.91,33.96,36.35,48.63h-18.26l-28.5-39.59-7.68,8.53v31.06h-14.85v-121.15h14.85v76.45Z"/>
      <path class="cls-1" d="m626.07,524.39l-1.19-10.41h-.51c-4.61,6.48-13.48,12.29-25.25,12.29-16.72,0-25.25-11.77-25.25-23.72,0-19.96,17.75-30.89,49.66-30.71v-1.71c0-6.83-1.88-19.11-18.77-19.11-7.68,0-15.7,2.39-21.5,6.14l-3.41-9.9c6.83-4.44,16.72-7.34,27.13-7.34,25.25,0,31.4,17.23,31.4,33.79v30.89c0,7.17.34,14.16,1.37,19.79h-13.65Zm-2.22-42.15c-16.38-.34-34.98,2.56-34.98,18.6,0,9.73,6.48,14.33,14.16,14.33,10.75,0,17.58-6.83,19.96-13.82.51-1.54.85-3.24.85-4.78v-14.33Z"/>
    </g>
    <g id="Stosowana">
      <path class="cls-1" d="m250.96,669.87c6.39,3.93,15.72,7.21,25.55,7.21,14.57,0,23.09-7.7,23.09-18.83,0-10.32-5.9-16.21-20.8-21.94-18.01-6.39-29.15-15.72-29.15-31.28,0-17.19,14.25-29.97,35.7-29.97,11.3,0,19.49,2.62,24.4,5.4l-3.93,11.63c-3.6-1.97-10.97-5.24-20.96-5.24-15.07,0-20.8,9.01-20.8,16.54,0,10.32,6.71,15.39,21.94,21.29,18.67,7.21,28.17,16.21,28.17,32.42,0,17.03-12.61,31.77-38.65,31.77-10.64,0-22.27-3.11-28.17-7.04l3.6-11.95Z"/>
      <path class="cls-1" d="m348.07,585.21v22.76h20.63v10.97h-20.63v42.74c0,9.83,2.78,15.39,10.81,15.39,3.77,0,6.55-.49,8.35-.98l.65,10.81c-2.78,1.15-7.21,1.96-12.77,1.96-6.71,0-12.12-2.13-15.56-6.06-4.09-4.26-5.57-11.3-5.57-20.63v-43.23h-12.28v-10.97h12.28v-19l14.08-3.77Z"/>
      <path class="cls-1" d="m453.7,646.95c0,29.31-20.31,42.09-39.47,42.09-21.45,0-37.99-15.72-37.99-40.78,0-26.53,17.36-42.08,39.3-42.08s38.16,16.54,38.16,40.78Zm-62.88.82c0,17.36,9.99,30.46,24.07,30.46s24.07-12.94,24.07-30.79c0-13.43-6.71-30.46-23.75-30.46s-24.4,15.72-24.4,30.79Z"/>
      <path class="cls-1" d="m467.95,672.49c4.26,2.78,11.79,5.73,19,5.73,10.48,0,15.39-5.24,15.39-11.79,0-6.88-4.09-10.64-14.74-14.58-14.25-5.08-20.96-12.94-20.96-22.43,0-12.77,10.32-23.25,27.35-23.25,8.02,0,15.07,2.29,19.49,4.91l-3.6,10.48c-3.11-1.96-8.84-4.58-16.21-4.58-8.52,0-13.26,4.91-13.26,10.81,0,6.55,4.75,9.5,15.07,13.43,13.76,5.24,20.8,12.12,20.8,23.91,0,13.92-10.81,23.75-29.64,23.75-8.68,0-16.7-2.13-22.27-5.4l3.6-10.97Z"/>
      <path class="cls-1" d="m604.52,646.95c0,29.31-20.31,42.09-39.46,42.09-21.45,0-37.99-15.72-37.99-40.78,0-26.53,17.36-42.08,39.3-42.08s38.16,16.54,38.16,40.78Zm-62.88.82c0,17.36,9.99,30.46,24.07,30.46s24.07-12.94,24.07-30.79c0-13.43-6.71-30.46-23.74-30.46s-24.4,15.72-24.4,30.79Z"/>
      <path class="cls-1" d="m625.32,607.97l10.48,40.28c2.29,8.84,4.42,17.03,5.9,25.22h.49c1.8-8.02,4.42-16.54,7.04-25.05l12.94-40.45h12.12l12.28,39.63c2.95,9.5,5.24,17.85,7.04,25.87h.49c1.31-8.02,3.44-16.38,6.06-25.71l11.3-39.79h14.25l-25.55,79.26h-13.1l-12.12-37.83c-2.78-8.84-5.08-16.7-7.04-26.04h-.33c-1.97,9.5-4.42,17.69-7.21,26.2l-12.77,37.66h-13.1l-23.91-79.26h14.74Z"/>
      <path class="cls-1" d="m781.39,687.23l-1.15-9.99h-.49c-4.42,6.22-12.94,11.79-24.24,11.79-16.05,0-24.24-11.3-24.24-22.76,0-19.16,17.03-29.64,47.65-29.48v-1.64c0-6.55-1.8-18.34-18.01-18.34-7.37,0-15.07,2.29-20.63,5.9l-3.28-9.5c6.55-4.26,16.05-7.04,26.04-7.04,24.24,0,30.13,16.54,30.13,32.42v29.64c0,6.88.33,13.59,1.31,19h-13.1Zm-2.13-40.45c-15.72-.33-33.57,2.46-33.57,17.85,0,9.33,6.22,13.76,13.59,13.76,10.32,0,16.87-6.55,19.16-13.26.49-1.47.82-3.11.82-4.58v-13.76Z"/>
      <path class="cls-1" d="m814.47,629.43c0-8.19-.16-14.9-.66-21.45h12.77l.82,13.1h.33c3.93-7.53,13.1-14.9,26.2-14.9,10.97,0,28,6.55,28,33.73v47.33h-14.41v-45.69c0-12.77-4.75-23.42-18.34-23.42-9.5,0-16.87,6.71-19.32,14.74-.66,1.8-.98,4.26-.98,6.71v47.65h-14.41v-57.81Z"/>
      <path class="cls-1" d="m947.28,687.23l-1.15-9.99h-.49c-4.42,6.22-12.94,11.79-24.24,11.79-16.05,0-24.24-11.3-24.24-22.76,0-19.16,17.03-29.64,47.65-29.48v-1.64c0-6.55-1.8-18.34-18.01-18.34-7.37,0-15.07,2.29-20.63,5.9l-3.28-9.5c6.55-4.26,16.05-7.04,26.04-7.04,24.24,0,30.13,16.54,30.13,32.42v29.64c0,6.88.33,13.59,1.31,19h-13.1Zm-2.13-40.45c-15.72-.33-33.57,2.46-33.57,17.85,0,9.33,6.22,13.76,13.59,13.76,10.32,0,16.87-6.55,19.16-13.26.49-1.47.82-3.11.82-4.58v-13.76Z"/>
    </g>
  </g>
</svg>